<svg width="301" height="301" viewBox="0 0 301 301" fill="none" xmlns="http://www.w3.org/2000/svg">
<circle cx="150.5" cy="150.5" r="150.5" fill="#6A0DAD"/>
<circle cx="182.756" cy="126.941" r="35.9407" fill="white"/>
<path d="M152.881 126.941C152.881 146.79 136.79 162.881 116.941 162.881C105.712 162.881 95.6862 157.732 89.0954 149.666C84.0353 143.474 81 135.562 81 126.941C81 107.091 97.0912 91 116.941 91C136.79 91 152.881 107.091 152.881 126.941Z" fill="white"/>
<path d="M152.881 126.941C152.881 146.79 136.79 162.881 116.941 162.881C105.712 162.881 95.6862 157.732 89.0954 149.666L151 210L209 151.5L218.5 126.941H152.881Z" fill="white"/>
</svg>
